<?xml version="1.0" encoding="UTF-8"?>
<svg xmlns="http://www.w3.org/2000/svg" viewBox="0 0 327.68 447.89"> <defs> <style>.cls-1,.cls-2{fill:#0044CC;}.cls-2{fill-rule:evenodd;}.cls-3{fill:#fff;}.cls-4{fill:#3c3c3b;}</style> </defs> <g id="Слой_2" data-name="Слой 2"> <g id="Layer_1" data-name="Layer 1"> <path class="cls-1" d="M162.85,145.58a3.76,3.76,0,0,0-5.32,0l-8.13,8.13a21.44,21.44,0,0,0-6.31,15.23v68.22a3.76,3.76,0,1,0,7.52,0V168.94a13.93,13.93,0,0,1,4.11-9.92l8.13-8.13a3.75,3.75,0,0,0,0-5.31"/> <path class="cls-1" d="M164.15,128.14l-21.66-6.57c-3.07,5.74-6.66,11-10.43,16.59a21.64,21.64,0,0,1-.84,2c-.11.21-.24.39-.35.6l5.71-7.14a93.71,93.71,0,0,1-29.75,35.74,94.18,94.18,0,0,1-29.72-35.7l3.15,3.93c-.23-.44-.48-.89-.66-1.33-.11-.08-.19-.17-.3-.25a16.84,16.84,0,0,1-2.94-4.91,32.08,32.08,0,0,1-5.6-9.43l-22.2,6.66a17,17,0,0,0-12.18,16.38v92.34a3.76,3.76,0,1,0,7.51,0V144.72a7.38,7.38,0,0,1,0-.82l15,15a13.9,13.9,0,0,1,4.12,9.92v68.22a3.76,3.76,0,1,0,7.51,0V168.84a21.41,21.41,0,0,0-6.31-15.24L47.71,137.06a9.49,9.49,0,0,1,3-1.52l16.93-5.08a100.33,100.33,0,0,0,37.1,46.6,3.75,3.75,0,0,0,4.16,0c26.8-17.87,36.36-44.27,37.15-46.56L162,135.33a3.76,3.76,0,1,0,2.18-7.19"/> <path class="cls-1" d="M162.85,145.58a3.76,3.76,0,0,0-5.32,0l-8.13,8.13a21.44,21.44,0,0,0-6.31,15.23v68.22a3.76,3.76,0,1,0,7.52,0V168.94a13.93,13.93,0,0,1,4.11-9.92l8.13-8.13a3.75,3.75,0,0,0,0-5.31"/> <path class="cls-1" d="M226.89,129.76a15.26,15.26,0,0,0,11.81-5.84,3.75,3.75,0,1,0-5.83-4.73,7.38,7.38,0,0,1-12,0,3.76,3.76,0,0,0-5.84,4.73,15.26,15.26,0,0,0,11.81,5.84"/> <path class="cls-1" d="M186.87,184.5a3.75,3.75,0,0,0-3.76,3.75v48.91a3.76,3.76,0,0,0,7.52,0V188.25a3.75,3.75,0,0,0-3.76-3.75"/> <path class="cls-1" d="M266.91,184.5a3.75,3.75,0,0,0-3.76,3.75v48.91a3.76,3.76,0,1,0,7.52,0V188.25a3.76,3.76,0,0,0-3.76-3.75"/> <path class="cls-1" d="M280.34,158.82A17.14,17.14,0,0,0,284,148.23a17,17,0,0,0-8.91-14.94c0-.21,0-.41,0-.62a14.86,14.86,0,0,0-6.22-12.11c.25-.86.49-1.74.69-2.62a41.2,41.2,0,0,0,.94-6.9,52.3,52.3,0,0,0,2.42-54.86,11.72,11.72,0,0,0,3.5-8c0-12.74-22.27-19.78-45.69-20.61a11.31,11.31,0,0,0,.73-4c0-4.5-2.43-8.14-5.42-8.14s-5.41,3.64-5.41,8.14a11.31,11.31,0,0,0,.72,4c-23.41.83-45.68,7.87-45.68,20.61,0,3.46,1.65,6.49,4.52,9.1a52.52,52.52,0,0,0,3,53.8,42.08,42.08,0,0,0,.95,6.9c.2.88.43,1.75.69,2.62a14.85,14.85,0,0,0-6.22,12.11c0,.21,0,.41,0,.62a17,17,0,0,0-5.24,25.53,25.84,25.84,0,0,0-12.56,22.25v56.1a3.76,3.76,0,0,0,7.52,0v-56.1A18.37,18.37,0,0,1,180,163.92l.72-.29c11.11,15,28.23,23.93,46.16,23.93,18.17,0,34.92-8.7,46.16-23.93l.72.29a18.38,18.38,0,0,1,11.61,17.15v56.09a3.76,3.76,0,0,0,7.52,0V181.07a25.84,25.84,0,0,0-12.56-22.25M226.06,36.24c26.91,0,41.59,7.86,41.59,11.9S253,60,226.06,60s-41.58-7.86-41.58-11.9,14.68-11.9,41.58-11.9M181.73,81.53a44.76,44.76,0,0,1,4.79-20.12c9.71,4.89,24.66,7.42,39.54,7.42,15.55,0,31.2-2.74,40.84-8.07a44.93,44.93,0,0,1,1.34,38.95c-5.42-11.65-17.45-14.92-29.15-18.08-9.47-2.57-19.25-5.21-27.64-11.92A3.75,3.75,0,0,0,205.74,71c0,.08-4,7.82-11.66,11.66a3.76,3.76,0,1,0,3.36,6.72,35.51,35.51,0,0,0,12.71-11.27c8.75,5.88,18.37,8.48,27,10.81,2.83.76,5.43,1.49,7.8,2.24h-.24a12.63,12.63,0,0,0-10.82,6.1,15.46,15.46,0,0,0-13.94,0,12.65,12.65,0,1,0,1.75,8,7.55,7.55,0,0,1,10.43,0,12.65,12.65,0,1,0,21.18-10.66c5.37,2.93,8.68,7,9.9,14.23a4.18,4.18,0,0,0-.11.79,35.47,35.47,0,0,1-13.41,26.9,36.24,36.24,0,0,1-45.55,0,35.49,35.49,0,0,1-13.4-26.9,3.75,3.75,0,0,0-1.12-2.53,44.91,44.91,0,0,1-7.86-25.47m68.08,22.24a5.14,5.14,0,1,1-5.13-5.14,5.13,5.13,0,0,1,5.13,5.14m-35.57,0a5.14,5.14,0,1,1-5.14-5.14,5.14,5.14,0,0,1,5.14,5.14m34.25,50a31.78,31.78,0,0,1-43.2,0,12.54,12.54,0,0,0,5.62-4.83,43.65,43.65,0,0,0,32,0,12.54,12.54,0,0,0,5.62,4.83m-67.8,1.76a9.52,9.52,0,0,1,3.3-16.39,3.76,3.76,0,0,0,2.49-4.57,7.46,7.46,0,0,1-.3-1.92,7.3,7.3,0,0,1,1.67-4.66,44,44,0,0,0,11.54,14.27,45,45,0,0,0,4.69,3.3,5,5,0,0,1-2,1.4Zm46.2,24.5c-15.15,0-29.14-7-38.92-19.32l9.75-3.9a39.32,39.32,0,0,0,58.33,0l9.76,3.9c-9.78,12.32-23.8,19.32-38.92,19.32m46.2-24.5L251.66,147a5.15,5.15,0,0,1-2-1.4A43.5,43.5,0,0,0,265.93,128a7.3,7.3,0,0,1,1.67,4.66,7.46,7.46,0,0,1-.3,1.92,3.76,3.76,0,0,0,2.48,4.57,9.52,9.52,0,0,1,3.31,16.39"/> <path class="cls-2" d="M0,253.84H327.68V386.91c0,18.47-21.29,31.51-62.61,31.51H226.53c-29.66,0-48.62,5.69-62.62,13.37-14-7.68-33.09-13.37-62.61-13.37H62.76c-41.33,0-62.76-13-62.76-31.51Z"/> <polygon class="cls-3" points="51.86 306.9 52.53 300.52 52.26 300.52 50.35 305.66 43.72 317.63 41.76 317.63 34.77 305.61 32.81 300.52 32.59 300.52 33.48 306.85 33.48 323.55 27.69 323.55 27.69 291.43 33.26 291.43 41.58 306.12 43.04 309.79 43.22 309.79 44.56 306.02 52.44 291.43 57.95 291.43 57.95 323.55 51.86 323.55 51.86 306.9"/> <path class="cls-3" d="M62.32,307.49q0-8,3.42-12.36t9.79-4.34a13.28,13.28,0,0,1,5.83,1.2,11,11,0,0,1,4.14,3.39A15.14,15.14,0,0,1,88,300.66a26.79,26.79,0,0,1,.8,6.83q0,8-3.45,12.37t-9.77,4.33A13.54,13.54,0,0,1,69.66,323a11,11,0,0,1-4.12-3.4,15.14,15.14,0,0,1-2.42-5.27,26.87,26.87,0,0,1-.8-6.84m6.4,0a22.93,22.93,0,0,0,.4,4.47,11.66,11.66,0,0,0,1.23,3.51,6.26,6.26,0,0,0,2.11,2.3,5.59,5.59,0,0,0,3.07.83,5.75,5.75,0,0,0,5-2.62q1.78-2.61,1.78-8.49a23.91,23.91,0,0,0-.38-4.36,12.52,12.52,0,0,0-1.17-3.53,6.35,6.35,0,0,0-2.1-2.36,5.58,5.58,0,0,0-3.16-.85,5.69,5.69,0,0,0-5,2.68c-1.18,1.79-1.78,4.6-1.78,8.42"/> <path class="cls-3" d="M114.21,322.23a9.13,9.13,0,0,1-3.63,1.51,22.5,22.5,0,0,1-4.52.45,16,16,0,0,1-5.32-.89,11.28,11.28,0,0,1-4.42-2.89,14.27,14.27,0,0,1-3-5.19,23,23,0,0,1-1.14-7.73,21.59,21.59,0,0,1,1.27-7.91,14.43,14.43,0,0,1,3.3-5.14,12.13,12.13,0,0,1,4.51-2.8,15.51,15.51,0,0,1,5-.85,24,24,0,0,1,4.52.37,15.37,15.37,0,0,1,3.05.87l-1.2,5.32a8.7,8.7,0,0,0-2.43-.73,21.79,21.79,0,0,0-3.4-.23,7.33,7.33,0,0,0-5.94,2.71q-2.25,2.72-2.25,8.42a17.67,17.67,0,0,0,.54,4.52,9.75,9.75,0,0,0,1.62,3.5,7.51,7.51,0,0,0,2.72,2.25,8.28,8.28,0,0,0,3.75.81,11.78,11.78,0,0,0,3.39-.42,10,10,0,0,0,2.4-1.05Z"/> <polygon class="cls-3" points="125.68 309.83 124.08 309.83 124.08 323.55 117.99 323.55 117.99 291.43 124.08 291.43 124.08 305.66 125.5 305.01 134.09 291.43 141.04 291.43 131.96 304.92 129.56 306.67 132.05 308.46 142.42 323.55 134.9 323.55 125.68 309.83"/> <path class="cls-3" d="M143.44,307.49q0-8,3.43-12.36t9.79-4.34a13.28,13.28,0,0,1,5.83,1.2,11,11,0,0,1,4.14,3.39,15.14,15.14,0,0,1,2.45,5.28,26.79,26.79,0,0,1,.8,6.83q0,8-3.45,12.37t-9.77,4.33a13.54,13.54,0,0,1-5.87-1.19,11,11,0,0,1-4.12-3.4,15.34,15.34,0,0,1-2.43-5.27,27.32,27.32,0,0,1-.8-6.84m6.41,0a22.93,22.93,0,0,0,.4,4.47,11.4,11.4,0,0,0,1.23,3.51,6.26,6.26,0,0,0,2.11,2.3,5.57,5.57,0,0,0,3.07.83,5.75,5.75,0,0,0,5-2.62q1.78-2.61,1.78-8.49a23.91,23.91,0,0,0-.38-4.36,12.21,12.21,0,0,0-1.18-3.53,6.25,6.25,0,0,0-2.09-2.36,5.58,5.58,0,0,0-3.16-.85,5.69,5.69,0,0,0-5,2.68q-1.78,2.69-1.78,8.42"/> <path class="cls-3" d="M195.2,298.91a9.77,9.77,0,0,1-.29,2.39,6.76,6.76,0,0,1-.95,2.18,6.61,6.61,0,0,1-1.72,1.74,7.46,7.46,0,0,1-2.57,1.13v.27a10,10,0,0,1,2.53.78,6.35,6.35,0,0,1,2.07,1.52,6.87,6.87,0,0,1,1.4,2.33,9.42,9.42,0,0,1,.51,3.26,8.31,8.31,0,0,1-3.76,7.25,12.56,12.56,0,0,1-3.89,1.7,18.67,18.67,0,0,1-4.5.55H182.1c-.79,0-1.64,0-2.54-.07s-1.82-.12-2.76-.21a19.34,19.34,0,0,1-2.56-.41V291.66c.57-.09,1.21-.18,1.94-.27s1.5-.17,2.33-.23,1.68-.11,2.56-.14,1.74,0,2.61,0a25.72,25.72,0,0,1,4.24.35,12.1,12.1,0,0,1,3.7,1.21,6.93,6.93,0,0,1,2.6,2.44,7.31,7.31,0,0,1,1,3.94m-13,6c.42,0,.9,0,1.45,0a12.52,12.52,0,0,0,1.36-.14,8,8,0,0,0,2.91-1.63,3.67,3.67,0,0,0,1.22-2.86,4,4,0,0,0-.44-2,3.45,3.45,0,0,0-1.18-1.22,5,5,0,0,0-1.67-.64,10.35,10.35,0,0,0-2-.18c-.77,0-1.48,0-2.13.05a13.26,13.26,0,0,0-1.51.13v8.49Zm1.93,13.81a8.27,8.27,0,0,0,2.12-.27,5.29,5.29,0,0,0,1.81-.84,4.36,4.36,0,0,0,1.27-1.43,4.16,4.16,0,0,0,.48-2,4.37,4.37,0,0,0-.56-2.37,4.08,4.08,0,0,0-1.49-1.34,6.19,6.19,0,0,0-2.05-.61,19.36,19.36,0,0,0-2.28-.13h-3.18v8.76a2.47,2.47,0,0,0,.7.14c.31,0,.66,0,1,.06l1.14,0c.39,0,.73,0,1,0"/> <path class="cls-3" d="M221.64,322.23a9.13,9.13,0,0,1-3.63,1.51,22.5,22.5,0,0,1-4.52.45,15.93,15.93,0,0,1-5.32-.89,11.28,11.28,0,0,1-4.42-2.89,14.13,14.13,0,0,1-3.05-5.19,23,23,0,0,1-1.14-7.73,21.59,21.59,0,0,1,1.27-7.91,14.43,14.43,0,0,1,3.3-5.14,12.13,12.13,0,0,1,4.51-2.8,15.51,15.51,0,0,1,5-.85,24,24,0,0,1,4.52.37,15.57,15.57,0,0,1,3.05.87l-1.2,5.32a8.7,8.7,0,0,0-2.43-.73,21.79,21.79,0,0,0-3.4-.23,7.33,7.33,0,0,0-5.94,2.71q-2.25,2.72-2.25,8.42a17.67,17.67,0,0,0,.54,4.52,9.75,9.75,0,0,0,1.62,3.5,7.56,7.56,0,0,0,2.71,2.25,8.35,8.35,0,0,0,3.76.81,11.78,11.78,0,0,0,3.39-.42,10,10,0,0,0,2.4-1.05Z"/> <polygon class="cls-3" points="233.12 309.83 231.52 309.83 231.52 323.55 225.42 323.55 225.42 291.43 231.52 291.43 231.52 305.66 232.94 305.01 241.53 291.43 248.47 291.43 239.39 304.92 236.99 306.67 239.48 308.46 249.85 323.55 242.33 323.55 233.12 309.83"/> <path class="cls-3" d="M250.87,307.49q0-8,3.43-12.36t9.79-4.34a13.31,13.31,0,0,1,5.83,1.2,11,11,0,0,1,4.14,3.39,15.14,15.14,0,0,1,2.45,5.28,27.24,27.24,0,0,1,.8,6.83q0,8-3.45,12.37t-9.77,4.33a13.62,13.62,0,0,1-5.88-1.19,11,11,0,0,1-4.11-3.4,15.34,15.34,0,0,1-2.43-5.27,27.32,27.32,0,0,1-.8-6.84m6.41,0a22.93,22.93,0,0,0,.4,4.47,11.4,11.4,0,0,0,1.23,3.51,6.26,6.26,0,0,0,2.11,2.3,5.57,5.57,0,0,0,3.07.83,5.75,5.75,0,0,0,5-2.62c1.18-1.74,1.78-4.57,1.78-8.49a23.91,23.91,0,0,0-.38-4.36,12.52,12.52,0,0,0-1.18-3.53,6.25,6.25,0,0,0-2.09-2.36,5.58,5.58,0,0,0-3.16-.85,5.69,5.69,0,0,0-5,2.68q-1.79,2.69-1.78,8.42"/> <polygon class="cls-3" points="281.67 291.43 300.14 291.43 300.14 297.03 287.77 297.03 287.77 304.51 299.02 304.51 299.02 310.11 287.77 310.11 287.77 317.95 300.36 317.95 300.36 323.55 281.67 323.55 281.67 291.43"/> <path class="cls-3" d="M54.24,380h-3l-.84-7.15H29.19L28.34,380h-3V368.87h3.32a15.2,15.2,0,0,0,1.18-2.22,26.06,26.06,0,0,0,1.43-4.51,65.88,65.88,0,0,0,1.24-7.2,100.82,100.82,0,0,0,.65-10.28h17v24.21h4.11Zm-8.62-11.09V348.6H37.18c-.07,1.58-.2,3.29-.39,5.15s-.44,3.72-.76,5.58a47.85,47.85,0,0,1-1.21,5.26,23.13,23.13,0,0,1-1.69,4.28Z"/> <path class="cls-3" d="M58.24,358.73c0-4.76,1-8.41,3.18-10.94s5.17-3.8,9.14-3.8a13.28,13.28,0,0,1,5.49,1,9.92,9.92,0,0,1,3.86,3,13,13,0,0,1,2.25,4.67,23.26,23.26,0,0,1,.74,6.05q0,7.15-3.19,10.95t-9.15,3.8a13.23,13.23,0,0,1-5.48-1,9.92,9.92,0,0,1-3.86-3A13,13,0,0,1,59,364.79a23.81,23.81,0,0,1-.72-6.06m4.67,0a19.62,19.62,0,0,0,.42,4.11,10.82,10.82,0,0,0,1.32,3.44A7,7,0,0,0,67,368.64a6.6,6.6,0,0,0,3.54.9q7.66.06,7.66-10.81a19.89,19.89,0,0,0-.42-4.16,10.82,10.82,0,0,0-1.32-3.44,7,7,0,0,0-2.37-2.33,6.82,6.82,0,0,0-3.55-.87q-7.65-.06-7.65,10.8"/> <path class="cls-3" d="M104.79,348.6H96.63c-.11,1.58-.23,3.28-.34,5.1s-.28,3.64-.51,5.46-.52,3.56-.89,5.23a22.93,22.93,0,0,1-1.44,4.42,9.46,9.46,0,0,1-2.14,3.07,4.33,4.33,0,0,1-3,1.15,12.65,12.65,0,0,1-1.86-.11,4.85,4.85,0,0,1-1.41-.39l.68-3.77a4.6,4.6,0,0,0,1.46.22,2.73,2.73,0,0,0,2-1,8.89,8.89,0,0,0,1.58-3.63A53.46,53.46,0,0,0,91.9,357q.45-4.73.62-12.33H109.3v28.15h-4.51Z"/> <polygon class="cls-3" points="134.41 348.6 122.47 348.6 122.47 372.81 117.97 372.81 117.97 344.66 134.41 344.66 134.41 348.6"/> <path class="cls-3" d="M136.26,358.73q0-7.14,3.18-10.94t9.15-3.8a13.31,13.31,0,0,1,5.49,1,9.89,9.89,0,0,1,3.85,3,12.7,12.7,0,0,1,2.25,4.67,23.26,23.26,0,0,1,.74,6.05q0,7.15-3.18,10.95c-2.13,2.54-5.17,3.8-9.15,3.8a13.28,13.28,0,0,1-5.49-1,10,10,0,0,1-3.86-3,13,13,0,0,1-2.25-4.67,23.8,23.8,0,0,1-.73-6.06m4.67,0a19,19,0,0,0,.43,4.11,10.59,10.59,0,0,0,1.32,3.44,7.1,7.1,0,0,0,2.36,2.36,6.66,6.66,0,0,0,3.55.9q7.65.06,7.66-10.81a19.23,19.23,0,0,0-.43-4.16,10.82,10.82,0,0,0-1.32-3.44,6.92,6.92,0,0,0-2.36-2.33,6.84,6.84,0,0,0-3.55-.87q-7.67-.06-7.66,10.8"/> <path class="cls-3" d="M182.81,348.6h-8.16c-.11,1.58-.23,3.28-.34,5.1s-.28,3.64-.5,5.46-.53,3.56-.9,5.23a22.26,22.26,0,0,1-1.44,4.42,9.17,9.17,0,0,1-2.14,3.07,4.29,4.29,0,0,1-3,1.15,12.74,12.74,0,0,1-1.86-.11,4.87,4.87,0,0,1-1.4-.39l.67-3.77a4.62,4.62,0,0,0,1.47.22,2.71,2.71,0,0,0,2-1,8.63,8.63,0,0,0,1.58-3.63,50.56,50.56,0,0,0,1.12-7.4q.45-4.73.62-12.33h16.78v28.15h-4.51Z"/> <path class="cls-3" d="M216.53,370.56a12.74,12.74,0,0,1-4.25,2.14,18.47,18.47,0,0,1-5.43.78,13.64,13.64,0,0,1-5.57-1,9.92,9.92,0,0,1-3.88-3,12.85,12.85,0,0,1-2.26-4.65,23.14,23.14,0,0,1-.73-6.08q0-7.2,3.21-11T206.8,344a17.9,17.9,0,0,1,3.83.42,8,8,0,0,1,5.9,4.95,14.31,14.31,0,0,1,1,5.72,28.63,28.63,0,0,1-.33,4.11H199.08a17.13,17.13,0,0,0,.51,4.39,8.64,8.64,0,0,0,1.58,3.23,6.74,6.74,0,0,0,2.79,2,11,11,0,0,0,4.19.7,11.49,11.49,0,0,0,3.83-.67,8.2,8.2,0,0,0,2.87-1.58Zm-9.68-22.63a7.82,7.82,0,0,0-5.32,1.74c-1.33,1.17-2.13,3.15-2.39,6h14q0-4.27-1.63-6a6.09,6.09,0,0,0-4.62-1.71"/> <polygon class="cls-3" points="242.54 348.6 233.71 348.6 233.71 372.81 229.2 372.81 229.2 348.6 220.37 348.6 220.37 344.66 242.54 344.66 242.54 348.6"/> <polygon class="cls-3" points="264.55 356.15 264.73 352.66 264.55 352.66 262.25 356.26 249.58 372.81 246.99 372.81 246.99 344.66 251.49 344.66 251.49 361.83 251.33 365.15 251.55 365.15 253.75 361.66 266.41 344.66 269.06 344.66 269.06 372.81 264.55 372.81 264.55 356.15"/> <path class="cls-3" d="M298.28,370.56A12.74,12.74,0,0,1,294,372.7a18.56,18.56,0,0,1-5.43.78,13.69,13.69,0,0,1-5.58-1,9.92,9.92,0,0,1-3.88-3,12.68,12.68,0,0,1-2.25-4.65,23.12,23.12,0,0,1-.74-6.08q0-7.2,3.21-11t9.18-3.77a17.9,17.9,0,0,1,3.83.42,8.08,8.08,0,0,1,5.91,4.95,14.31,14.31,0,0,1,1,5.72,28.74,28.74,0,0,1-.34,4.11H280.83a17.61,17.61,0,0,0,.5,4.39,8.49,8.49,0,0,0,1.58,3.23,6.77,6.77,0,0,0,2.78,2,11.12,11.12,0,0,0,4.2.7,11.45,11.45,0,0,0,3.83-.67,8.2,8.2,0,0,0,2.87-1.58Zm-9.68-22.63a7.8,7.8,0,0,0-5.32,1.74c-1.34,1.17-2.14,3.15-2.39,6h14q0-4.27-1.64-6a6.07,6.07,0,0,0-4.61-1.71"/> <path class="cls-1" d="M156.36,59.38c-.61-.38.17.55-.42.06-3.4-3-5.26.09-7.56,3a5.06,5.06,0,0,1,3.39,5.68,5.4,5.4,0,0,1-5.48,4.21,3.72,3.72,0,0,0-3.72,3.72,35.7,35.7,0,0,1-3.76,16,11.55,11.55,0,0,1,7.26,2,43,43,0,0,0,3.82-14.76,12.37,12.37,0,0,0,7.6-18.42,14.3,14.3,0,0,1-1.13-1.5"/> <path class="cls-1" d="M67.09,72.36a5.4,5.4,0,0,1-5.48-4.2,5.09,5.09,0,0,1,2.08-5l-2.37-1.52-1.72-1c-1,.18-2.08.31-2.43.37s-1,.16-1.43.21a12.48,12.48,0,0,0-1.47,8.17,12.67,12.67,0,0,0,9.22,10A43,43,0,0,0,67.3,94.05a15.71,15.71,0,0,1,6.07-4.69,35.56,35.56,0,0,1-2.56-13.28,3.71,3.71,0,0,0-3.72-3.72"/> <path class="cls-1" d="M89.09,60.68a3.73,3.73,0,0,0-3.72,3.72v4.4a3.72,3.72,0,0,0,7.44,0V64.4a3.73,3.73,0,0,0-3.72-3.72"/> <path class="cls-1" d="M124.29,72.52A3.72,3.72,0,0,0,128,68.8V64.4a3.72,3.72,0,1,0-7.44,0v4.4a3.73,3.73,0,0,0,3.72,3.72"/> <path class="cls-1" d="M76.33,48.26a15.19,15.19,0,0,1-1.74-.13,15.91,15.91,0,0,1-1.7-.31,2.86,2.86,0,0,1-.82,2L64.87,57a2.86,2.86,0,0,1-4-4L67.77,46c-.14-.08-.3-.14-.43-.22a19.39,19.39,0,0,1-5.41-5L55.29,47.4A10.68,10.68,0,1,0,70.4,62.51l7.2-7.2a10.56,10.56,0,0,0,3.12-7.55v0a17,17,0,0,1-4.39.54"/> <path class="cls-1" d="M134.88,48.26a15.19,15.19,0,0,0,1.74-.13,15.91,15.91,0,0,0,1.7-.31,2.86,2.86,0,0,0,.82,2l7.2,7.2a2.86,2.86,0,1,0,4-4L143.44,46c.14-.08.3-.14.43-.22a19.39,19.39,0,0,0,5.41-5l6.64,6.63a10.68,10.68,0,1,1-15.11,15.11l-7.2-7.2a10.56,10.56,0,0,1-3.12-7.55v0a17,17,0,0,0,4.39.54"/> <path class="cls-1" d="M107,152.59c-25.84,0-47.22-32.89-47.22-49.67,0-9.58,7-12.81,13.23-15.1,4.64-7.2,24.24-12.49,29.5-12.49h5.14c9.27,0,27,5.6,30.05,13.3h.05c8.47,1.91,16.47,3.7,16.47,14.28,0,16.78-21.38,49.67-47.22,49.67M79.39,91.5A3.72,3.72,0,0,1,77,94.29c-8,2.89-9.79,4.42-9.79,8.63,0,13.55,18.82,42.23,39.78,42.23s39.78-28.68,39.78-42.23c0-4.1-1.19-4.89-10.66-7l-2.52-.57a3.71,3.71,0,0,1-2.88-3.62V91.2c-1.42-2.73-13.48-8.43-23.07-8.43H102.5c-5.65,0-21.12,5.88-23.11,8.73"/> <path class="cls-1" d="M124.8,97a3.73,3.73,0,0,0-3.15-1.93H92.45a3.72,3.72,0,0,0-3.3,5.45c3.93,7.45,10.51,11.9,17.63,11.9s13.54-4.27,18-11.72A3.74,3.74,0,0,0,124.8,97m-24.7,5.5h13.45a10.58,10.58,0,0,1-13.45,0"/> <path class="cls-1" d="M140.43,30c-3.48,0-5.53-.13-6.71-.22L119.89,2.36a4.3,4.3,0,0,0-3-2.27,4.34,4.34,0,0,0-3.62.89l-7.7,6.35L97.91,1A4.34,4.34,0,0,0,94.29.09a4.3,4.3,0,0,0-3,2.27L77.5,29.73c-1.18.09-3.24.19-6.71.22-7.51.05-11.53,6.11-11.51,11.78A11.11,11.11,0,0,0,70.82,53.09H140.4a11.11,11.11,0,0,0,11.54-11.36c0-5.67-4-11.73-11.51-11.78m0,14.54H70.82c-2.42,0-2.93-1.52-2.94-2.79a2.91,2.91,0,0,1,3-3.15c8.51-.07,12.32-.1,13.5-3.33L96.59,11l6.18,5.1a4.29,4.29,0,0,0,5.67,0l6.19-5.1,12.22,24.17c1.1,3.08,4.38,3.27,13.51,3.34a2.91,2.91,0,0,1,3,3.15c0,1.27-.52,2.79-2.94,2.79"/> <polygon class="cls-4" points="44.23 456 27.85 456 27.85 487.74 23.64 487.74 23.64 452.24 48.44 452.24 48.44 487.74 44.23 487.74 44.23 456"/> <path class="cls-4" d="M56.65,462.39h2.79l.76,3h.21a7.72,7.72,0,0,1,3-2.71,9.15,9.15,0,0,1,4.23-.94q5.07,0,7.56,3t2.48,9.79a18.65,18.65,0,0,1-.83,5.75,12.65,12.65,0,0,1-2.36,4.34,10.39,10.39,0,0,1-3.68,2.74,11.64,11.64,0,0,1-4.79,1,14.61,14.61,0,0,1-3-.23,12,12,0,0,1-2.36-.78v10.55H56.65Zm10.25,2.94a5.9,5.9,0,0,0-4.08,1.34,7.55,7.55,0,0,0-2.11,4.08v12.58a6.56,6.56,0,0,0,2.08,1.09,10.4,10.4,0,0,0,3.1.38,6.69,6.69,0,0,0,5.55-2.61q2.06-2.61,2-7.68a19,19,0,0,0-.35-3.78A8.4,8.4,0,0,0,72,467.84,5.46,5.46,0,0,0,70,466a6.48,6.48,0,0,0-3.07-.66"/> <path class="cls-4" d="M82.67,475.06q0-6.44,2.87-9.86t8.24-3.42a12,12,0,0,1,4.94.94,9,9,0,0,1,3.48,2.68,11.71,11.71,0,0,1,2,4.21,21,21,0,0,1,.66,5.45q0,6.45-2.87,9.87t-8.24,3.42a12,12,0,0,1-5-.94,9,9,0,0,1-3.47-2.68,11.71,11.71,0,0,1-2-4.21,21.06,21.06,0,0,1-.66-5.46m4.21,0a18,18,0,0,0,.38,3.71,9.71,9.71,0,0,0,1.19,3.09A6.47,6.47,0,0,0,90.58,484a6,6,0,0,0,3.2.81c4.59,0,6.9-3.21,6.9-9.74a18.2,18.2,0,0,0-.38-3.75,9.72,9.72,0,0,0-1.2-3.09A6.23,6.23,0,0,0,97,466.11a6.16,6.16,0,0,0-3.19-.78q-6.9-.06-6.9,9.73"/> <path class="cls-4" d="M129.79,485.72a11.56,11.56,0,0,1-3.83,1.92,16.36,16.36,0,0,1-4.9.71,12.32,12.32,0,0,1-5-.94,9,9,0,0,1-3.5-2.68,11.59,11.59,0,0,1-2-4.19,20.94,20.94,0,0,1-.66-5.48q0-6.48,2.89-9.89c1.92-2.26,4.68-3.39,8.26-3.39a15.59,15.59,0,0,1,3.45.38,7.25,7.25,0,0,1,5.33,4.46,13,13,0,0,1,.86,5.15,24.26,24.26,0,0,1-.31,3.7H114.06a15.72,15.72,0,0,0,.46,4,7.62,7.62,0,0,0,1.42,2.91,6.09,6.09,0,0,0,2.51,1.83,10,10,0,0,0,3.78.63,10.21,10.21,0,0,0,3.45-.61,7.17,7.17,0,0,0,2.58-1.42Zm-8.73-20.39a7,7,0,0,0-4.79,1.57q-1.8,1.58-2.15,5.37h12.57q0-3.84-1.47-5.4a5.46,5.46,0,0,0-4.16-1.54"/> <polygon class="cls-4" points="143.43 476.33 141.09 476.33 141.09 487.74 137.04 487.74 137.04 462.39 141.09 462.39 141.09 473.85 143.28 473.14 151.39 462.39 155.81 462.39 147.94 472.58 145.81 474.25 148.45 476.28 156.92 487.74 151.9 487.74 143.43 476.33"/> <polygon class="cls-4" points="177.46 465.94 169.5 465.94 169.5 487.74 165.44 487.74 165.44 465.94 157.48 465.94 157.48 462.38 177.46 462.38 177.46 465.94"/> <polygon class="cls-4" points="221.13 463.91 221.63 458.58 221.38 458.58 219.45 463.45 210.22 479.48 208.96 479.48 199.17 463.4 197.34 458.58 197.09 458.58 197.8 463.86 197.8 487.74 193.84 487.74 193.84 452.24 196.99 452.24 208.09 470.4 209.77 474.36 209.87 474.36 211.44 470.3 222.04 452.24 225.34 452.24 225.34 487.74 221.13 487.74 221.13 463.91"/> <path class="cls-4" d="M235.78,473.29h10.7a9.68,9.68,0,0,0-2.09-5.78,6.46,6.46,0,0,0-5.23-2.18,10.68,10.68,0,0,0-3.62.55,11.42,11.42,0,0,0-2.5,1.22L231.62,464a12.58,12.58,0,0,1,3.61-1.65,17,17,0,0,1,4.71-.58c3.75,0,6.49,1.16,8.22,3.5s2.58,5.59,2.58,9.78-1,7.63-3,9.89a10.47,10.47,0,0,1-8.31,3.4,22.94,22.94,0,0,1-4.39-.38,11,11,0,0,1-3.37-1.14l1.16-3.45a10.17,10.17,0,0,0,2.85,1,15.36,15.36,0,0,0,3.31.38c4.72,0,7.23-2.69,7.54-8.16H235.78Z"/> <path class="cls-4" d="M257.13,462.39h2.79l.76,3h.21a7.65,7.65,0,0,1,3-2.71,9.15,9.15,0,0,1,4.23-.94q5.07,0,7.56,3t2.48,9.79a18.65,18.65,0,0,1-.83,5.75,12.65,12.65,0,0,1-2.36,4.34,10.39,10.39,0,0,1-3.68,2.74,11.64,11.64,0,0,1-4.79,1,14.61,14.61,0,0,1-3-.23,12,12,0,0,1-2.36-.78v10.55h-4.06Zm10.25,2.94a5.9,5.9,0,0,0-4.08,1.34,7.55,7.55,0,0,0-2.11,4.08v12.58a6.56,6.56,0,0,0,2.08,1.09,10.38,10.38,0,0,0,3.09.38,6.7,6.7,0,0,0,5.56-2.61q2.06-2.61,2.05-7.68a19,19,0,0,0-.35-3.78,8.4,8.4,0,0,0-1.14-2.89,5.46,5.46,0,0,0-2-1.85,6.48,6.48,0,0,0-3.07-.66"/> <path class="cls-4" d="M284.16,464.26a14.53,14.53,0,0,1,4.49-1.72A25.21,25.21,0,0,1,294,462a10.66,10.66,0,0,1,4.24.71,5.91,5.91,0,0,1,2.43,1.85,6.39,6.39,0,0,1,1.12,2.51,14.15,14.15,0,0,1,.28,2.74q0,3-.16,5.93c-.1,1.93-.15,3.76-.15,5.48,0,1.25.05,2.44.15,3.55a17.64,17.64,0,0,0,.56,3.1h-3l-1.07-3.55h-.25a8.29,8.29,0,0,1-1.14,1.39,7.18,7.18,0,0,1-1.65,1.21,9.88,9.88,0,0,1-2.23.89,10.58,10.58,0,0,1-2.89.36,8.74,8.74,0,0,1-3-.51,7.19,7.19,0,0,1-2.41-1.44,6.75,6.75,0,0,1-1.59-2.26,7.32,7.32,0,0,1-.59-3,7,7,0,0,1,.92-3.73,6.47,6.47,0,0,1,2.56-2.38,12.48,12.48,0,0,1,3.95-1.27,30.79,30.79,0,0,1,5.1-.38h1.39a9.61,9.61,0,0,1,1.4.1c.1-1,.15-1.93.15-2.74q0-2.79-1.11-3.9c-.75-.75-2.1-1.12-4.06-1.12a13.76,13.76,0,0,0-1.86.13c-.65.09-1.33.21-2,.37a14.31,14.31,0,0,0-2,.57,9.38,9.38,0,0,0-1.65.76Zm7.21,20.34a7.91,7.91,0,0,0,2.53-.38,7.25,7.25,0,0,0,1.93-1,5.93,5.93,0,0,0,1.34-1.3,5.58,5.58,0,0,0,.79-1.37v-4.21l-1.45-.07-1.44,0a25.58,25.58,0,0,0-3.07.18,9.81,9.81,0,0,0-2.64.66,4.54,4.54,0,0,0-1.82,1.32,3.2,3.2,0,0,0-.69,2.1,3.75,3.75,0,0,0,1.27,2.92,4.67,4.67,0,0,0,3.25,1.14"/> </g> </g> </svg>